<?xml version="1.0" encoding="UTF-8" standalone="no"?>
<!-- Created with Inkscape (http://www.inkscape.org/) -->

<svg
   width="198.29182"
   height="47.737495"
   viewBox="0 0 52.46471 12.630546"
   version="1.1"
   id="svg5"
   inkscape:version="1.2.2 (b0a84865, 2022-12-01)"
   sodipodi:docname="atxmic-logo.svg"
   xmlns:inkscape="http://www.inkscape.org/namespaces/inkscape"
   xmlns:sodipodi="http://sodipodi.sourceforge.net/DTD/sodipodi-0.dtd"
   xmlns="http://www.w3.org/2000/svg"
   xmlns:svg="http://www.w3.org/2000/svg">
  <sodipodi:namedview
     id="namedview7"
     pagecolor="#505050"
     bordercolor="#eeeeee"
     borderopacity="1"
     inkscape:showpageshadow="0"
     inkscape:pageopacity="0"
     inkscape:pagecheckerboard="0"
     inkscape:deskcolor="#505050"
     inkscape:document-units="mm"
     showgrid="false"
     inkscape:zoom="2.653302"
     inkscape:cx="118.71999"
     inkscape:cy="16.58311"
     inkscape:window-width="1512"
     inkscape:window-height="916"
     inkscape:window-x="0"
     inkscape:window-y="38"
     inkscape:window-maximized="1"
     inkscape:current-layer="layer1" />
  <defs
     id="defs2" />
  <g
     inkscape:label="레이어 1"
     inkscape:groupmode="layer"
     id="layer1"
     transform="translate(-0.0590079,-0.14181175)">
    <g
       aria-label="Atxmic"
       id="text236"
       style="font-size:16.9289px;font-family:'Pretendard Variable';-inkscape-font-specification:'Pretendard Variable, @wght=600';font-variation-settings:'wght' 600;stroke-width:0.705371">
      <path
         d="M 0.0590079,12.590505 4.3573614,0.62124348 H 6.4652078 L 10.771827,12.590505 H 8.8293022 L 5.4567479,2.8117505 H 5.3575551 L 1.9767348,12.590505 Z M 8.5151917,7.9036462 V 9.424602 H 2.2991113 V 7.9036462 Z"
         style="-inkscape-font-specification:'Pretendard Variable, @wght=500';fill:#ffffff"
         id="path3245" />
      <path
         d="M 16.343155,5.0187897 H 11.433112 V 3.6135588 h 4.910043 z M 14.52462,1.464382 v 8.4892481 q 0,0.4794319 0.140524,0.7356799 0.140523,0.256248 0.371972,0.355441 0.23145,0.09919 0.553827,0.09919 0.396771,0 0.884469,-0.03306 v 1.520956 q -0.471166,0.07439 -1.091121,0.07439 -0.719147,0 -1.32257,-0.264515 -0.595157,-0.27278 -0.958864,-0.810074 -0.35544,-0.54556 -0.35544,-1.32257 V 1.464382 Z"
         style="-inkscape-font-specification:'Pretendard Variable, @wght=500';fill:#11ffff"
         id="path3247" />
      <path
         d="m 21.443316,7.1018379 1.992122,-3.4882791 h 1.934259 l -2.802196,4.4802068 2.818728,4.4967394 H 23.476768 L 21.443316,9.2344825 19.451195,12.590505 H 17.516936 L 20.286067,8.0937656 17.541734,3.6135588 h 1.942525 z"
         style="-inkscape-font-specification:'Pretendard Variable, @wght=500';fill:#11ffff"
         id="path3249" />
      <path
         d="m 26.98158,3.6135588 h 1.686277 v 1.4630934 h 0.115725 q 0.297578,-0.7522119 0.925799,-1.1655151 0.628221,-0.4133032 1.51269,-0.4133032 0.58689,0 1.058056,0.1818534 0.479432,0.1818534 0.81834,0.5372942 0.338909,0.3554407 0.537294,0.8596707 h 0.09093 q 0.223184,-0.4959639 0.611689,-0.8431386 0.388505,-0.3554408 0.917533,-0.5455602 0.537294,-0.1901195 1.173781,-0.1901195 0.834873,0 1.454827,0.3471747 0.619955,0.3471747 0.96713,1.033258 0.355441,0.6860834 0.355441,1.7028093 V 12.590505 H 37.438151 V 6.7463972 q 0,-0.8762029 -0.471166,-1.2977721 -0.471165,-0.4298354 -1.206845,-0.4298354 -0.562092,0 -0.96713,0.2397159 -0.405037,0.2314498 -0.619954,0.6530191 -0.214918,0.4133032 -0.214918,0.9588634 V 12.590505 H 32.205732 V 6.6224062 q 0,-0.4711657 -0.206651,-0.8348725 -0.198386,-0.3719729 -0.570359,-0.5703584 -0.371973,-0.1983856 -0.851404,-0.1983856 -0.487698,0 -0.909268,0.256248 -0.421569,0.256248 -0.677817,0.7191476 -0.247982,0.4628996 -0.247982,1.0580562 V 12.590505 H 26.98158 Z"
         style="-inkscape-font-specification:'Pretendard Variable, @wght=500';fill:#ffffff"
         id="path3251" />
      <path
         d="m 41.356267,3.6135588 h 1.760671 V 12.590505 H 41.356267 Z M 42.23247,2.22486 q -0.297579,0 -0.553827,-0.1322571 Q 41.422395,1.9520798 41.273606,1.712364 41.124817,1.464382 41.124817,1.1833359 q 0,-0.28931229 0.148789,-0.52076209 0.148789,-0.23971587 0.405037,-0.38023896 0.256248,-0.1405231 0.553827,-0.1405231 0.31411,0 0.570358,0.1405231 0.256248,0.14052309 0.396771,0.38023896 0.148789,0.2314498 0.148789,0.52076209 0,0.2810461 -0.148789,0.5290281 Q 43.059076,1.9520798 42.802828,2.0926029 42.54658,2.22486 42.23247,2.22486 Z"
         style="-inkscape-font-specification:'Pretendard Variable, @wght=500';fill:#ffffff"
         id="path3253" />
      <path
         d="m 48.837055,12.772358 q -1.28124,0 -2.240104,-0.595157 -0.950597,-0.595156 -1.463093,-1.644946 -0.50423,-1.0497905 -0.50423,-2.388893 0,-1.3639006 0.520762,-2.4136908 0.520762,-1.0580562 1.463094,-1.6449468 0.942331,-0.5868905 2.190507,-0.5868905 1.024992,0 1.835066,0.3719729 0.810074,0.3719729 1.297772,1.0580562 0.487698,0.6860833 0.586891,1.5870844 H 50.804378 Q 50.713451,6.085112 50.448937,5.7379373 50.192689,5.3824965 49.787652,5.1758449 49.382615,4.9691933 48.845321,4.9691933 q -0.727414,0 -1.28124,0.380239 -0.54556,0.3802389 -0.851405,1.0828544 -0.305844,0.7026155 -0.305844,1.6614789 0,0.9671296 0.297578,1.6862772 0.305845,0.7108812 0.851405,1.0993862 0.54556,0.388505 1.289506,0.388505 0.495964,0 0.901001,-0.173587 0.413303,-0.181853 0.686083,-0.529028 0.27278,-0.347175 0.371973,-0.8266066 h 1.719342 q -0.09919,0.8762026 -0.578625,1.5622866 -0.471166,0.686083 -1.272974,1.082854 -0.801808,0.388505 -1.835066,0.388505 z"
         style="-inkscape-font-specification:'Pretendard Variable, @wght=500';fill:#ffffff"
         id="path3255" />
    </g>
  </g>
</svg>
